<svg id="Layer_1" data-name="Layer 1" xmlns="http://www.w3.org/2000/svg" viewBox="0 0 897 619.7"><defs><style>.cls-1,.cls-8{fill:#8d8d8d;}.cls-2,.cls-3,.cls-4,.cls-5,.cls-6{fill:none;}.cls-2,.cls-3,.cls-4,.cls-5,.cls-6,.cls-7,.cls-8{stroke:#000;}.cls-2,.cls-3,.cls-4,.cls-6,.cls-7,.cls-8{stroke-linejoin:round;}.cls-2,.cls-5,.cls-6,.cls-7,.cls-8{stroke-width:20px;}.cls-3,.cls-5,.cls-6,.cls-7,.cls-8{stroke-linecap:round;}.cls-3,.cls-4{stroke-width:30px;}.cls-5{stroke-miterlimit:10;}.cls-7{fill:#fff;}</style></defs><polygon class="cls-1" points="253.5 572.36 156.5 572.36 10.78 310.86 107.57 310.49 253.5 572.36"/><polygon class="cls-1" points="427.29 572.36 253.5 572.36 107.57 310.49 107.55 310.45 196.61 310.14 196.62 310.14 274.7 309.88 427.29 572.36"/><polygon class="cls-1" points="886.72 310.86 741 572.36 644 572.36 789.93 310.49 886.72 310.86"/><polygon class="cls-1" points="789.95 310.45 789.93 310.49 644 572.36 470.71 572.36 623.03 310.36 623.28 309.92 789.95 310.45"/><path class="cls-2" d="M172.57,366.63" transform="translate(-65 -56.15)"/><path class="cls-2" d="M261.61,366.29" transform="translate(-65 -56.15)"/><polyline class="cls-2" points="10.78 310.86 10.5 310.36 105 137.85 20 137.85 93 49.85 449 49.85 448.82 233.49 448.75 311.11 448.65 410.88 448.5 572.36 427.29 572.36"/><polyline class="cls-3" points="107.5 310.36 199 141.85 371.72 141.5"/><polyline class="cls-4" points="107.55 310.45 107.5 310.36 200 141.85"/><polyline class="cls-5" points="285.08 474.7 193.5 310.36 193.61 310.14"/><line class="cls-5" x1="240.36" y1="224.82" x2="193.62" y2="310.14"/><path class="cls-2" d="M855,366.6" transform="translate(-65 -56.15)"/><polyline class="cls-2" points="470.71 572.36 449 572.36 448.85 410.99 448.75 311.11 448.68 233.54 448.5 49.85 804.5 49.85 877.5 137.85 792.5 137.85 887 310.36 886.72 310.86"/><polyline class="cls-4" points="527.28 144.85 699.5 145.21 743.14 224.82 790 310.36 789.95 310.45"/><line class="cls-5" x1="654.14" y1="224.82" x2="743.5" y2="224.82"/><polyline class="cls-6" points="613.42 474.7 705 310.36 622 310.36"/><polygon class="cls-7" points="449 10 449 233.4 274.5 309.55 449 10"/><polygon class="cls-7" points="449 233.4 449 411.07 274.5 309.55 449 233.4"/><polygon class="cls-8" points="449 411.07 449 609.71 427.29 572.36 274.7 309.88 274.5 309.55 275.08 309.88 448.5 410.79 448.65 410.88 448.85 410.99 449 411.07"/><polygon class="cls-7" points="623.5 309.55 449 233.4 449 10 623.5 309.55"/><polygon class="cls-7" points="623.5 309.55 449 411.07 449 233.4 623.5 309.55"/><polygon class="cls-8" points="623.5 309.55 623.28 309.92 623.03 310.36 470.71 572.36 449 609.71 449 411.07 622.11 310.36 622.86 309.92 623.5 309.55"/><path class="cls-6" d="M172.55,366.6" transform="translate(-65 -56.15)"/><line class="cls-6" x1="10.78" y1="310.85" x2="10" y2="310.85"/><line class="cls-6" x1="887" y1="310.85" x2="886.72" y2="310.85"/><polyline class="cls-2" points="107.57 310.49 253.5 572.36 156.5 572.36 10.78 310.86"/><polyline class="cls-2" points="274.7 309.88 427.29 572.36 253.5 572.36 107.57 310.49 107.55 310.45"/><polyline class="cls-2" points="886.72 310.86 741 572.36 644 572.36"/><polyline class="cls-4" points="789.95 310.45 789.93 310.49 644 572.36"/><line class="cls-4" x1="107.57" y1="310.48" x2="253.5" y2="572.35"/><line class="cls-6" x1="644" y1="572.35" x2="470.71" y2="572.35"/><polyline class="cls-2" points="100 144.85 24 144.85 20 137.85"/><polyline class="cls-2" points="797 144.85 873.5 144.85 877.5 137.85"/></svg>